<?xml version="1.0" standalone="no"?>
<!DOCTYPE svg PUBLIC "-//W3C//DTD SVG 20010904//EN"
 "http://www.w3.org/TR/2001/REC-SVG-20010904/DTD/svg10.dtd">
<svg version="1.0" xmlns="http://www.w3.org/2000/svg"
 width="1200.000000pt" height="1200.000000pt" viewBox="0 0 1200.000000 1200.000000"
 preserveAspectRatio="xMidYMid meet">
<metadata>
Created by potrace 1.16, written by Peter Selinger 2001-2019
</metadata>
<g transform="translate(0.000000,1200.000000) scale(0.100000,-0.100000)"
fill="#ffffff" stroke="none">
<path d="M6201 10950 c-1 -8 -3 -33 -4 -55 -2 -38 -4 -40 -34 -40 -18 0 -33
-3 -33 -6 0 -4 -17 -10 -37 -14 -49 -9 -113 -35 -113 -46 0 -5 15 -16 33 -25
17 -9 51 -30 75 -46 43 -30 44 -30 110 -17 121 23 325 15 447 -16 168 -44 299
-147 281 -221 -4 -13 -29 -50 -57 -81 -74 -81 -93 -129 -93 -233 0 -65 5 -98
23 -144 23 -58 137 -236 151 -236 4 0 10 21 13 46 3 31 30 96 78 191 72 141
73 145 74 221 0 76 -1 78 -74 221 -96 188 -143 237 -303 316 -140 69 -251 95
-415 95 l-112 0 -4 53 c-2 28 -4 45 -6 37z"/>
<path d="M5267 10853 c-4 -3 -7 -14 -7 -23 0 -14 -16 -20 -77 -30 -175 -29
-409 -129 -567 -244 -86 -62 -256 -218 -256 -234 0 -4 33 -18 72 -29 l73 -22
53 47 c94 82 204 160 293 206 98 52 216 99 229 91 5 -3 11 -1 15 5 7 12 55 14
55 2 0 -12 -74 -82 -87 -82 -6 0 -13 -3 -15 -7 -1 -5 -29 -27 -60 -51 -169
-125 -164 -353 11 -474 30 -21 60 -38 66 -38 8 0 14 21 17 53 3 35 19 82 49
142 l44 90 0 145 c0 80 4 155 8 166 10 29 74 72 134 90 50 15 203 31 203 21 0
-3 -4 -16 -9 -29 -8 -21 -6 -24 15 -26 20 -1 24 3 24 24 l0 27 65 -7 c125 -13
295 -83 417 -172 71 -52 180 -174 215 -240 38 -71 67 -167 60 -200 -2 -14 0
-27 4 -30 22 -13 -2 -194 -37 -284 -60 -156 -193 -313 -352 -417 -57 -37 -57
-36 -26 -110 7 -18 18 -33 25 -33 20 0 120 60 212 128 175 129 311 307 349
455 10 38 23 142 28 231 6 88 14 168 17 176 3 8 5 22 4 31 -1 9 8 41 19 72 37
99 130 171 261 201 33 8 63 17 66 19 9 10 -17 44 -61 81 l-45 36 -68 -16 c-37
-9 -82 -22 -99 -30 -18 -8 -42 -15 -55 -16 -13 -2 -26 -6 -29 -10 -10 -13
-107 -24 -154 -16 -57 8 -115 37 -276 135 -63 38 -132 76 -152 84 -21 7 -38
16 -38 19 0 3 -8 6 -17 7 -10 1 -52 11 -93 23 -47 13 -121 22 -205 26 -71 4
-138 11 -147 15 -10 6 -19 5 -23 -1 -3 -5 -33 -10 -66 -10 -52 0 -59 2 -59 20
0 20 -11 26 -23 13z"/>
<path d="M7003 10668 l-33 -9 33 -48 c17 -27 37 -56 42 -65 6 -9 23 -16 40
-16 95 0 119 -2 160 -14 113 -35 211 -129 280 -271 65 -134 79 -197 79 -350 0
-108 -3 -140 -21 -187 -46 -123 -214 -323 -368 -436 -76 -56 -89 -60 -123 -36
-31 22 -44 51 -90 204 -91 301 -182 456 -353 595 -20 17 -72 45 -83 45 -2 0
-6 -52 -9 -115 l-7 -114 54 -83 c67 -104 107 -197 143 -335 37 -147 39 -344 4
-503 -48 -221 -143 -523 -154 -490 -3 8 -10 35 -17 60 -6 25 -29 83 -51 129
-50 108 -51 148 -4 221 120 190 137 276 90 471 -21 90 -26 126 -20 173 6 57 5
59 -12 45 -185 -145 -276 -255 -308 -374 l-18 -64 -41 -4 -41 -4 41 -1 41 -2
6 -82 c6 -101 31 -169 97 -267 54 -82 103 -205 121 -307 7 -39 10 -115 7 -183
-5 -102 -11 -132 -48 -246 -64 -196 -127 -312 -229 -418 -60 -63 -112 -98
-119 -78 -5 16 -22 14 -22 -4 0 -19 -30 -19 -74 -1 -41 17 -130 103 -173 166
-103 152 -282 597 -353 878 -65 255 -83 399 -83 667 -1 297 17 419 99 667 66
200 172 378 321 537 83 89 86 94 67 108 -29 23 -141 73 -162 73 -20 0 -191
-170 -279 -277 -28 -34 -57 -68 -63 -75 -42 -47 -148 -210 -196 -301 -94 -177
-113 -178 -265 -12 -57 62 -108 114 -113 114 -4 1 -29 18 -55 39 -144 117
-350 206 -536 231 -85 12 -215 16 -235 8 -29 -11 -151 -28 -160 -22 -6 4 -10
2 -10 -3 0 -8 -64 -37 -100 -44 -8 -2 -19 -7 -25 -11 -5 -5 -41 -26 -80 -48
-38 -22 -78 -45 -89 -52 -38 -25 -169 -162 -210 -221 -49 -70 -116 -187 -116
-204 0 -8 20 -12 55 -12 l55 0 48 63 c255 335 543 458 876 373 167 -43 387
-165 489 -270 87 -91 200 -277 242 -401 22 -64 31 -194 16 -223 -16 -30 -56
-28 -128 3 -75 34 -157 96 -189 145 -23 34 -27 54 -33 152 -5 72 -13 124 -23
143 -9 17 -55 68 -103 113 -49 47 -93 99 -102 120 l-16 37 -19 -44 c-41 -96
-60 -170 -65 -251 -10 -160 49 -250 189 -290 40 -12 87 -27 103 -35 41 -19
256 -191 333 -268 78 -77 94 -122 90 -258 l-3 -94 -27 2 c-22 1 -132 62 -148
82 -6 7 -45 29 -145 79 -38 20 -72 38 -75 41 -3 3 -12 7 -20 7 -8 1 -55 14
-104 28 -48 14 -96 26 -105 26 -10 0 -20 3 -24 6 -3 3 -36 6 -73 7 -64 2 -69
0 -81 -23 -7 -14 -13 -37 -13 -51 0 -28 20 -37 95 -45 116 -11 347 -119 473
-220 140 -112 198 -184 305 -383 119 -219 252 -371 402 -461 176 -105 226
-155 365 -365 63 -96 117 -155 142 -155 33 0 66 30 143 130 70 92 95 120 95
106 0 -11 -129 -204 -159 -239 -44 -49 -84 -64 -116 -43 -34 22 -77 83 -128
180 -33 63 -66 104 -149 188 -59 59 -112 108 -118 108 -15 0 -171 113 -232
169 -31 28 -72 75 -93 106 -21 30 -40 53 -42 51 -2 -2 5 -37 17 -77 12 -41 30
-103 40 -139 66 -227 83 -290 115 -417 41 -166 45 -241 14 -269 -20 -18 -22
-18 -87 16 -107 55 -384 244 -426 290 -51 57 -79 122 -79 186 0 69 24 110 99
172 82 67 108 120 112 229 5 103 -20 192 -79 283 -45 70 -128 170 -141 170 -5
0 -6 -22 -2 -50 7 -50 6 -50 -22 -51 -21 -1 -23 -3 -9 -6 11 -3 24 -8 28 -12
14 -13 -12 -102 -55 -194 -58 -126 -66 -206 -26 -299 37 -88 39 -218 3 -218
-17 0 -76 73 -102 125 -43 85 -73 230 -73 350 0 22 -11 64 -25 94 -22 46 -99
154 -144 201 -31 32 -81 121 -93 164 -7 25 -15 46 -19 46 -13 0 -58 -127 -75
-210 -22 -111 -15 -252 16 -335 31 -80 101 -149 204 -201 l79 -39 97 -160 c52
-89 108 -177 124 -198 16 -20 25 -37 20 -37 -5 0 -54 20 -109 44 -55 24 -131
56 -168 71 -76 31 -187 99 -187 115 0 5 -6 10 -14 10 -19 0 -88 79 -143 162
-56 86 -89 174 -109 291 -28 160 -7 269 106 558 96 244 113 314 108 443 -5
116 -29 180 -98 259 -49 56 -108 85 -202 101 -62 11 -81 10 -133 -4 -89 -24
-129 -47 -189 -105 -52 -52 -106 -141 -106 -177 0 -18 2 -17 39 2 72 36 107
36 221 -4 123 -43 170 -45 225 -11 100 61 103 62 131 34 25 -26 48 -94 37
-112 -3 -5 -7 -24 -8 -41 -1 -17 -49 -130 -107 -251 -173 -360 -201 -451 -201
-650 -1 -82 5 -140 16 -185 23 -86 95 -225 168 -327 32 -45 59 -83 59 -86 0
-8 -155 6 -158 14 -2 5 -23 6 -47 2 -24 -3 -52 -2 -62 1 -10 4 -43 9 -73 11
-120 7 -303 77 -384 147 l-38 34 -2 85 c-3 117 -28 167 -158 306 -55 59 -108
123 -116 141 -9 18 -21 31 -26 29 -22 -7 -55 -169 -55 -268 -1 -114 16 -181
62 -241 40 -52 89 -81 182 -109 126 -38 275 -118 275 -148 0 -4 -44 -15 -97
-25 -248 -46 -603 -154 -745 -227 -31 -16 -64 -29 -72 -29 -8 0 -16 -3 -18 -8
-4 -10 -136 -88 -168 -100 -14 -5 -53 -9 -87 -10 -53 0 -63 2 -63 16 0 14 -2
15 -9 3 -8 -12 -22 -8 -85 23 -42 20 -96 53 -122 72 l-45 35 -60 -52 c-32 -28
-59 -54 -59 -57 0 -3 24 -29 54 -59 30 -29 70 -74 88 -100 29 -42 33 -56 33
-114 0 -62 -3 -69 -41 -120 -23 -30 -75 -90 -114 -134 -153 -169 -289 -369
-359 -529 -56 -127 -86 -252 -101 -411 -6 -71 -16 -135 -22 -142 -7 -9 -6 -23
6 -47 9 -19 16 -53 16 -75 0 -53 36 -221 62 -286 11 -27 40 -93 65 -145 44
-92 46 -99 53 -215 6 -96 12 -130 31 -170 26 -55 93 -126 184 -195 75 -57 122
-125 131 -191 4 -27 10 -49 15 -49 12 0 74 80 97 125 40 81 55 153 49 244 -6
98 -25 156 -76 232 -33 49 -130 135 -155 136 -6 1 -53 17 -105 36 -120 44
-150 74 -185 187 -39 123 -49 208 -43 370 6 175 25 248 102 405 55 111 141
245 161 252 31 10 42 -187 17 -308 -14 -75 -15 -95 -4 -158 28 -155 111 -261
264 -336 91 -44 237 -91 237 -76 0 5 -9 28 -19 52 -11 24 -27 98 -35 164 -22
173 -55 259 -135 348 -35 38 -119 87 -151 87 -9 0 -27 12 -41 26 -21 23 -24
36 -27 120 -3 81 0 108 22 177 58 185 234 375 447 481 88 44 119 54 119 39 0
-5 -11 -43 -25 -85 -91 -285 -96 -570 -15 -819 17 -53 34 -135 40 -189 5 -52
14 -138 19 -190 13 -133 41 -202 110 -270 63 -62 139 -103 233 -125 71 -17
288 -32 288 -20 0 4 -19 25 -41 47 -48 46 -95 142 -134 273 -15 50 -37 108
-48 130 -40 80 -122 140 -239 175 -72 22 -143 134 -178 283 -30 125 -23 327
14 452 43 142 97 246 172 325 58 61 159 140 179 140 12 0 -4 -97 -29 -175 -14
-45 -46 -107 -83 -163 -84 -124 -98 -170 -98 -312 0 -112 1 -117 36 -190 39
-81 101 -149 185 -205 53 -36 132 -71 140 -63 2 3 -3 22 -13 44 -26 60 -22
180 11 283 46 148 32 232 -62 375 -29 44 -55 90 -58 103 -9 34 21 148 52 201
32 55 101 123 169 168 152 101 395 143 625 110 106 -16 330 -80 330 -95 0 -4
-19 -21 -42 -39 -48 -37 -131 -115 -174 -163 -40 -47 -80 -74 -137 -93 -27 -9
-67 -25 -90 -36 -22 -11 -47 -20 -54 -20 -7 0 -13 -4 -13 -10 0 -5 -5 -10 -12
-10 -7 0 -34 -23 -61 -52 -76 -79 -112 -172 -144 -365 -3 -18 -9 -33 -14 -33
-5 0 -9 -7 -9 -15 0 -8 9 -15 20 -15 15 0 20 -7 20 -28 0 -35 24 -130 46 -180
l16 -37 15 42 c20 57 78 120 188 203 107 80 166 143 202 214 21 40 27 71 33
165 5 82 13 130 27 161 50 113 238 218 420 235 65 6 212 -15 238 -34 6 -4 32
-16 58 -25 42 -16 52 -17 74 -5 40 22 140 16 191 -10 48 -25 113 -86 142 -134
41 -66 18 -58 -55 20 -92 100 -139 120 -257 114 -33 -1 -37 -17 -7 -26 37 -12
193 -122 261 -185 37 -34 72 -59 76 -56 5 3 20 -6 32 -19 41 -44 53 -34 47 41
-9 112 -71 211 -193 304 -31 24 -156 79 -199 88 -42 9 -150 8 -175 -2 -50 -18
-202 -57 -207 -52 -3 3 3 9 13 12 10 4 39 15 64 24 80 31 210 53 280 47 166
-14 350 -131 426 -270 24 -46 28 -62 28 -146 1 -94 1 -96 -26 -109 l-28 -13
32 -48 32 -48 21 46 c21 44 72 94 211 208 74 61 132 176 158 313 16 83 37 90
95 30 44 -46 68 -105 77 -195 3 -33 7 -73 9 -90 9 -68 -34 -187 -149 -415
-170 -336 -216 -478 -216 -666 0 -72 -2 -84 -17 -84 -9 0 -13 -3 -9 -8 4 -4
13 -7 19 -7 15 0 30 -246 22 -362 -3 -46 -3 -83 -1 -83 2 0 18 30 36 68 63
130 241 279 515 432 160 90 224 138 314 238 188 208 204 232 348 517 75 149
164 332 199 408 70 153 111 217 189 289 102 93 141 115 301 163 115 35 137 47
201 108 29 27 53 46 53 42 0 -21 -77 -107 -121 -136 -47 -30 -236 -95 -247
-85 -5 5 -87 -45 -117 -72 -42 -36 -149 -179 -171 -228 -12 -28 -53 -103 -90
-165 -75 -126 -161 -310 -218 -466 -49 -133 -113 -228 -228 -338 -86 -83 -365
-295 -387 -295 -5 0 -11 -4 -13 -8 -1 -5 -66 -50 -143 -102 -187 -124 -267
-190 -322 -264 -65 -87 -93 -155 -109 -259 -22 -144 -20 -149 28 -77 51 77
135 147 275 229 157 93 196 125 381 309 148 148 176 182 247 295 44 71 108
159 143 195 35 37 75 84 89 105 28 40 53 49 53 18 0 -40 -32 -185 -66 -298
-28 -94 -37 -144 -44 -243 -8 -132 -21 -174 -73 -236 -36 -43 -90 -145 -141
-267 -25 -60 -66 -138 -91 -173 -57 -80 -71 -113 -80 -189 -4 -33 -13 -85 -20
-115 -7 -30 -15 -102 -18 -160 -4 -64 -14 -131 -26 -170 -25 -77 -26 -90 -7
-90 25 0 99 84 150 169 59 98 85 169 86 232 0 83 19 148 89 315 88 205 125
270 252 430 202 256 224 305 293 654 42 208 80 333 143 457 132 264 401 482
673 543 113 26 186 22 300 -16 89 -30 165 -80 230 -151 53 -57 80 -108 80
-148 0 -29 -25 -55 -119 -128 -33 -26 -66 -63 -85 -97 -28 -49 -31 -65 -34
-156 -2 -56 1 -125 7 -153 13 -59 65 -199 84 -225 12 -17 16 -13 42 39 19 40
63 95 136 170 122 126 147 169 156 272 3 38 10 74 16 81 7 8 5 12 -6 12 -8 0
-17 13 -21 31 -8 39 -108 246 -155 319 -43 67 -130 152 -191 188 -25 14 -47
29 -50 32 -3 3 -33 15 -67 25 -35 11 -63 23 -63 27 0 16 61 23 200 22 80 0
154 -2 165 -3 314 -38 666 -196 813 -367 177 -205 174 -538 -6 -706 -69 -65
-100 -69 -290 -38 -213 34 -365 -94 -403 -342 -11 -68 -9 -191 2 -203 3 -3 24
12 46 33 52 50 109 76 236 108 177 44 267 112 297 224 11 40 57 87 173 175
108 82 163 188 174 332 3 40 9 73 14 73 10 0 62 -136 88 -228 45 -162 53 -410
16 -513 -32 -92 -120 -162 -160 -129 -12 10 -15 9 -15 -2 0 -11 -17 -17 -65
-21 -82 -8 -158 -40 -213 -91 -51 -48 -109 -159 -118 -227 -5 -39 -10 -49 -25
-49 -23 0 -26 -35 -5 -47 9 -5 19 -37 26 -77 6 -37 20 -87 32 -110 19 -37 22
-39 32 -22 53 90 130 148 279 208 154 63 219 153 262 359 13 63 35 146 48 185
36 103 50 203 50 344 -1 160 -24 293 -78 454 -50 145 -94 225 -190 345 -37 46
-65 84 -63 86 6 7 95 -14 150 -35 64 -24 191 -111 221 -151 26 -36 36 -94 37
-216 0 -158 23 -201 194 -379 96 -98 121 -133 153 -214 9 -24 10 -23 38 24 43
73 85 210 92 295 6 87 -11 170 -53 253 -29 57 -136 171 -171 182 -13 4 -23 12
-23 17 0 6 -4 8 -9 4 -5 -3 -15 1 -23 8 -7 8 -26 17 -41 21 -35 9 -96 46 -145
90 -52 46 -188 139 -247 169 -27 13 -84 36 -125 51 -41 15 -82 29 -90 33 -8 3
-21 5 -27 4 -7 -1 -13 6 -13 16 0 14 -2 15 -9 4 -7 -11 -18 -11 -62 -1 -72 17
-223 71 -227 82 -2 4 -7 6 -11 4 -8 -5 -220 69 -230 80 -5 6 59 2 204 -11 252
-24 677 -158 895 -282 25 -14 74 -41 110 -60 221 -120 440 -316 567 -507 54
-80 116 -204 132 -261 12 -43 13 -146 3 -182 -12 -38 -50 -72 -94 -83 -24 -6
-74 -22 -112 -37 -151 -57 -215 -127 -276 -299 -37 -107 -69 -163 -111 -198
-17 -15 -28 -30 -24 -34 3 -4 66 -7 138 -7 189 1 302 39 387 131 71 77 99 148
124 317 17 121 73 268 92 242 41 -56 41 -290 1 -470 -46 -204 -90 -281 -195
-349 -153 -98 -242 -250 -242 -414 0 -67 35 -244 57 -286 l16 -31 15 44 c17
52 73 110 161 170 91 62 139 114 174 189 l32 67 -2 170 -2 170 39 120 c42 131
80 301 80 362 0 45 7 58 38 67 29 10 28 26 -2 26 -23 0 -23 2 -29 133 -10 216
-45 329 -201 652 l-101 210 1 85 c0 78 4 94 48 198 34 82 52 142 64 218 l16
104 38 0 c21 0 38 4 38 8 0 12 -54 62 -67 62 -6 0 -15 40 -22 88 -24 191 -95
384 -206 560 -69 111 -161 232 -176 232 -5 0 -9 -32 -9 -71 0 -71 1 -74 61
-171 91 -147 182 -426 165 -508 -3 -17 -1 -32 5 -36 14 -8 3 -155 -17 -233 -8
-31 -28 -84 -44 -119 -25 -53 -36 -66 -72 -82 -24 -11 -61 -20 -83 -20 -48 0
-167 30 -215 54 -51 26 -140 88 -140 98 0 4 -5 8 -11 8 -6 0 -41 18 -77 39
-37 21 -128 65 -202 97 -74 31 -137 60 -140 63 -3 3 -10 6 -15 6 -19 0 -265
80 -265 86 0 20 273 123 302 113 10 -3 18 -1 18 5 0 6 9 11 19 11 15 0 21 -8
24 -32 4 -32 4 -32 5 5 2 26 7 37 17 37 30 0 132 59 163 95 78 89 120 214 129
389 l6 120 -50 -42 c-27 -23 -55 -42 -61 -42 -7 0 -12 -4 -12 -9 0 -10 -54
-31 -143 -56 -110 -30 -177 -117 -223 -291 -15 -55 -37 -112 -50 -130 -29 -38
-116 -78 -150 -70 -15 4 -24 2 -24 -5 0 -13 -170 -7 -192 7 -6 4 -23 8 -37 10
-14 1 -46 4 -71 7 -25 3 -128 6 -229 7 l-185 2 71 67 c86 80 129 135 176 221
67 123 83 243 46 352 -34 102 -92 174 -189 234 -33 20 -60 44 -60 53 0 13 -2
13 -9 3 -7 -11 -16 -11 -54 2 -75 25 -174 37 -252 30 l-73 -7 -5 29 -4 29 -2
-31 c-1 -29 -6 -33 -53 -49 -85 -27 -86 -29 -35 -63 44 -31 46 -31 103 -20 44
9 59 9 62 0 2 -8 11 -7 27 4 24 15 62 13 168 -10 195 -43 274 -250 172 -445
-95 -181 -280 -309 -615 -425 -55 -20 -110 -41 -123 -47 -36 -20 -154 -138
-199 -202 -71 -99 -96 -124 -165 -162 -35 -21 -70 -38 -76 -40 -7 -1 -20 -5
-29 -9 -9 -4 -21 -5 -27 -2 -5 4 -12 2 -15 -3 -3 -5 -27 -12 -52 -16 -26 -3
-53 -9 -60 -12 -8 -3 -14 -1 -14 5 0 11 62 33 148 52 66 15 148 74 222 160
106 121 163 180 182 186 11 3 17 8 15 11 -6 5 -227 -62 -260 -78 -9 -5 -51
-23 -92 -39 -138 -55 -307 -146 -482 -260 -23 -15 -55 -27 -70 -26 -28 1 -28
1 -30 76 -3 102 11 198 63 440 117 532 188 740 325 945 134 201 354 357 645
458 89 31 116 38 184 51 8 1 22 6 31 10 9 4 27 8 40 10 13 2 31 6 39 9 24 9
175 35 303 52 136 17 274 19 402 4 50 -5 113 -12 140 -15 71 -7 286 -43 324
-54 41 -11 47 2 35 79 l-9 56 -67 24 c-60 21 -68 27 -69 50 -2 23 -2 24 -6 4
-5 -27 -33 -31 -33 -5 0 13 -2 14 -9 4 -6 -11 -34 -9 -147 9 -76 11 -145 23
-152 25 -10 3 -11 17 -5 56 4 29 7 94 6 145 -6 369 -265 684 -676 823 -37 13
-67 26 -67 29 0 4 -15 7 -32 8 -18 0 -71 5 -118 12 -88 11 -210 15 -210 6 0
-3 9 -23 20 -44 19 -37 22 -39 82 -46 400 -43 722 -295 804 -628 31 -126 -12
-272 -94 -320 -42 -25 -251 -44 -264 -25 -6 10 -10 10 -17 -1 -6 -9 -30 -16
-58 -18 -26 -2 -97 -10 -158 -19 -60 -8 -125 -13 -142 -10 -19 3 -33 0 -33 -5
0 -6 -15 -10 -32 -8 -18 1 -41 -2 -50 -6 -61 -26 -22 60 71 153 142 144 330
215 610 229 l123 6 -5 37 c-2 20 -14 58 -26 84 l-21 48 -122 -4 c-68 -2 -128
-7 -135 -11 -6 -4 -61 -10 -120 -14 -96 -5 -114 -3 -155 15 -97 43 -153 126
-203 302 -35 122 -73 206 -129 284 -71 100 -184 181 -293 211 -32 9 -65 19
-73 22 -25 9 -223 10 -257 1z m-565 -1483 c-16 -45 -22 -94 -26 -200 l-5 -140
-23 50 c-44 94 -24 246 43 326 14 16 27 28 29 27 1 -2 -7 -30 -18 -63z m148
-923 c0 -114 4 -144 43 -300 37 -151 43 -191 48 -325 7 -177 -7 -250 -61 -332
-39 -59 -134 -165 -148 -165 -20 0 -158 -103 -238 -177 -104 -97 -185 -197
-304 -376 -113 -172 -177 -288 -216 -396 -34 -93 -35 -101 -16 -101 8 0 34 32
58 70 117 190 180 279 228 325 29 28 47 40 41 28 -6 -12 -16 -25 -21 -28 -10
-6 -74 -102 -170 -258 -58 -94 -155 -217 -171 -217 -16 0 -9 73 16 169 43 159
160 365 358 629 92 124 300 315 391 361 50 25 80 48 113 90 83 105 101 165
102 343 1 130 -6 189 -37 328 -42 180 -54 342 -31 423 5 20 11 37 12 37 1 0 2
-57 3 -128z m-3556 -230 c17 -32 60 -94 95 -138 35 -43 63 -80 61 -82 -8 -8
-84 38 -115 70 -58 59 -103 174 -100 261 1 31 1 31 14 -10 8 -24 28 -69 45
-101z m3516 -144 c4 -18 10 -73 13 -123 9 -115 -7 -223 -50 -340 -33 -93 -57
-123 -145 -190 -66 -49 -451 -435 -495 -495 -69 -94 -229 -463 -274 -631 -27
-101 -44 -259 -28 -259 5 0 23 20 41 45 37 52 64 62 35 13 -60 -102 -82 -126
-104 -112 -15 9 -10 208 6 289 29 139 138 410 222 554 72 123 165 233 341 404
316 307 362 364 398 487 9 30 19 62 21 70 8 23 3 164 -6 172 -4 5 -36 -51 -70
-122 -35 -72 -86 -159 -112 -194 -46 -61 -350 -340 -399 -366 -21 -11 -26 -10
-42 10 -10 12 -18 36 -17 54 l1 31 11 -32 c24 -64 29 -62 124 33 49 49 130
126 179 171 137 124 229 271 298 481 15 45 31 82 36 82 5 0 12 -15 16 -32z
m-1249 -138 c13 -10 86 -54 161 -97 74 -43 157 -98 184 -123 97 -90 184 -289
195 -445 6 -85 -9 -200 -33 -250 l-14 -30 6 35 c14 77 7 244 -15 333 -42 174
-129 311 -248 388 -144 94 -214 145 -244 175 -36 37 -32 46 8 14z m170 -255
c61 -31 132 -104 166 -171 36 -71 84 -218 98 -298 25 -150 -5 -392 -62 -495
-11 -20 -18 -29 -15 -19 33 112 72 403 56 423 -4 6 -10 35 -14 65 -8 65 -56
210 -96 295 -34 71 -111 155 -142 155 -21 0 -21 -2 -15 -137 6 -142 -4 -229
-30 -273 -9 -16 -12 -18 -8 -5 16 46 16 206 1 330 -9 72 -16 136 -16 143 0 18
21 15 77 -13z m-623 -140 c207 -95 289 -135 276 -135 -25 0 -91 21 -144 45
-238 107 -328 105 -711 -15 -105 -33 -250 -70 -274 -70 -31 0 6 17 63 30 33 6
96 28 140 47 78 34 338 106 441 123 70 12 150 2 209 -25z m139 -185 c100 -41
168 -88 188 -128 12 -22 19 -74 24 -160 6 -106 4 -134 -9 -166 -20 -48 -28
-44 -16 9 11 50 -15 249 -39 293 -30 55 -146 121 -257 147 -111 26 -346 17
-479 -19 -55 -15 -110 -24 -122 -21 -14 3 -23 1 -23 -6 0 -8 -18 -10 -60 -5
-40 5 -60 3 -60 -4 0 -5 -21 -10 -47 -10 -25 0 -44 2 -41 5 3 3 54 14 114 25
151 27 146 26 269 54 85 19 138 25 233 24 68 0 125 2 128 4 11 12 128 -13 197
-42z m1633 -66 c9 -35 -1 -106 -37 -259 -17 -71 -33 -150 -36 -175 -10 -91
-82 -234 -223 -440 -39 -56 -162 -182 -260 -264 -30 -26 -62 -52 -70 -59 -8
-8 -35 -29 -59 -48 -24 -19 -71 -63 -105 -97 -72 -75 -94 -90 -102 -68 -12 32
100 225 244 421 25 33 65 101 89 150 43 85 45 88 39 45 -8 -56 -60 -158 -165
-324 -89 -141 -99 -170 -52 -139 144 91 347 293 431 429 30 49 80 129 112 178
40 62 61 106 68 145 7 31 22 106 35 166 35 164 38 191 25 215 -16 30 -38 22
-86 -32 -51 -56 -109 -153 -160 -267 -21 -46 -40 -79 -41 -74 -8 24 92 247
150 333 37 56 167 190 184 190 7 0 16 -11 19 -26z m872 -60 c222 -26 166 -44
-93 -29 -121 7 -137 5 -228 -19 -93 -25 -152 -49 -188 -78 -32 -26 -148 -206
-202 -313 -97 -194 -107 -233 -116 -440 -8 -153 -13 -192 -36 -263 -14 -46
-29 -82 -32 -79 -2 3 0 37 6 76 6 38 11 105 11 148 0 166 18 297 54 395 50
137 62 163 124 268 107 182 154 240 226 277 44 23 288 83 311 77 6 -1 79 -10
163 -20z m-50 -115 c52 -20 14 -28 -150 -31 -157 -3 -177 -5 -216 -26 -104
-55 -211 -290 -228 -505 -6 -62 -4 -78 5 -73 7 5 17 20 23 34 l12 27 4 -25 c5
-29 -23 -86 -46 -95 -41 -15 -51 52 -31 206 18 142 64 256 152 376 66 89 109
111 238 121 111 8 200 5 237 -9z m-3814 -291 c-83 -86 -131 -150 -158 -209
l-16 -34 5 48 c10 99 99 224 188 262 63 28 59 14 -19 -67z m6167 -106 c53 -34
96 -83 120 -137 20 -44 40 -153 30 -159 -4 -3 -15 17 -25 42 -23 58 -91 162
-145 224 -60 67 -54 76 20 30z m-4272 -423 c-33 -134 -42 -187 -46 -291 -6
-127 -1 -178 17 -178 5 0 41 47 80 104 67 99 96 134 104 125 2 -2 -32 -67 -76
-144 -86 -152 -142 -221 -158 -195 -16 25 -12 337 6 430 23 121 101 351 111
324 2 -6 -15 -85 -38 -175z"/>
<path d="M7302 10273 c-151 -152 -202 -250 -202 -384 0 -62 4 -76 57 -178 45
-89 57 -121 57 -161 1 -32 5 -50 13 -50 7 0 43 31 81 68 91 90 143 192 152
295 6 86 -6 125 -67 216 -65 96 -57 141 37 203 24 15 24 17 10 45 -26 48 -44
41 -138 -54z"/>
<path d="M4090 10044 c-118 -106 -231 -186 -341 -241 -94 -48 -118 -57 -136
-54 -7 1 -13 -2 -13 -7 0 -11 -106 -36 -119 -28 -5 4 -12 2 -15 -3 -5 -8 -25
-12 -126 -26 -14 -1 -79 -10 -144 -19 -66 -9 -128 -14 -138 -10 -10 3 -18 2
-18 -3 0 -5 -30 -14 -67 -21 -93 -18 -218 -70 -305 -128 -122 -81 -203 -171
-316 -351 -83 -130 -131 -192 -247 -320 -215 -236 -259 -324 -260 -523 0 -128
25 -210 90 -298 56 -77 190 -183 212 -169 5 3 17 21 27 41 l19 35 -61 65
c-112 120 -170 260 -158 381 8 82 73 211 147 290 58 62 114 101 122 87 3 -4 9
-40 12 -80 6 -58 5 -72 -6 -72 -10 -1 -8 -4 4 -11 12 -7 17 -23 17 -54 0 -24
3 -46 8 -49 4 -2 34 1 67 8 l60 12 -5 70 c-10 136 -6 224 10 234 13 9 13 11 0
19 -12 9 -12 23 7 106 31 136 78 227 163 318 126 135 268 210 456 241 49 8 96
15 104 15 8 0 83 10 165 21 148 20 272 48 330 74 17 8 64 28 105 46 214 90
439 250 552 393 l31 39 -24 18 c-13 10 -39 21 -57 25 -18 3 -39 8 -45 10 -7 2
-55 -35 -107 -81z"/>
<path d="M6109 10072 c-183 -75 -310 -211 -384 -412 -23 -63 -29 -95 -33 -200
-5 -155 8 -214 79 -356 l51 -102 7 -143 c10 -192 20 -211 180 -348 45 -39 71
-70 89 -109 l25 -55 23 46 c45 89 67 191 62 296 -8 170 -54 248 -209 351 -48
33 -99 74 -113 92 -37 49 -65 130 -72 206 -21 235 177 505 409 557 l52 11 3
62 c2 33 -1 76 -6 94 -8 31 -11 33 -53 35 -28 1 -68 -8 -110 -25z m-151 -1106
c38 -20 86 -73 111 -122 26 -52 41 -147 32 -199 l-7 -40 -7 46 c-10 59 -66
175 -123 255 -56 80 -57 87 -6 60z"/>
<path d="M8780 9838 c0 -2 11 -37 24 -78 l24 -75 110 -55 c177 -89 271 -175
333 -303 53 -112 62 -264 20 -346 -11 -20 -39 -55 -64 -78 -46 -42 -107 -80
-107 -66 0 5 -4 3 -8 -4 -12 -20 -131 -47 -203 -47 -82 0 -123 22 -165 89 -40
64 -97 128 -126 143 -77 39 -158 49 -263 31 -71 -11 -220 -63 -241 -83 -6 -6
-32 -23 -58 -38 -54 -32 -59 -48 -13 -48 75 0 203 -50 298 -115 29 -20 68 -43
86 -50 26 -11 33 -20 34 -42 l1 -28 7 25 c6 23 12 25 86 31 44 4 93 12 108 18
35 14 137 15 137 1 0 -5 13 -7 30 -3 29 5 30 5 30 -35 0 -52 18 -64 22 -15 l3
38 115 7 c68 4 141 15 179 27 l63 20 -5 -35 c-11 -67 -50 -128 -136 -214 -96
-96 -183 -152 -286 -186 l-70 -22 3 -59 c2 -32 7 -62 12 -66 4 -5 35 -1 69 8
342 88 615 441 638 823 20 334 -153 615 -472 767 -91 43 -216 79 -215 63z"/>
<path d="M3113 9450 c-13 -5 -23 -18 -23 -29 0 -34 -48 -79 -111 -103 -122
-47 -201 -131 -239 -255 -21 -68 -47 -249 -38 -259 3 -3 21 9 39 26 40 36 104
71 194 105 85 32 171 89 201 134 43 67 56 119 61 259 l6 132 -34 -1 c-19 0
-44 -4 -56 -9z"/>
<path d="M5647 9143 c-67 -97 -102 -219 -101 -348 2 -146 35 -245 122 -360 64
-86 74 -115 77 -230 4 -167 26 -207 193 -357 45 -40 78 -97 90 -155 l8 -38 26
40 c50 76 72 159 72 275 0 88 -3 115 -23 164 -34 86 -97 149 -197 197 -96 45
-139 90 -189 194 -39 83 -55 152 -55 244 0 71 28 198 55 250 15 29 14 34 -10
85 -14 29 -25 58 -25 64 0 22 -17 12 -43 -25z m312 -950 c41 -49 69 -126 76
-205 l5 -63 -24 65 c-25 64 -76 145 -148 231 -21 26 -38 50 -38 53 0 16 101
-48 129 -81z"/>
<path d="M9500 9148 c0 -86 9 -103 64 -130 68 -34 208 -138 277 -207 67 -68
131 -161 170 -248 34 -74 68 -208 69 -273 4 -214 -6 -247 -94 -331 -37 -35
-70 -79 -92 -123 -38 -76 -41 -109 -24 -253 8 -76 5 -121 -16 -215 -8 -35 2
-35 71 -2 93 44 168 106 217 180 93 142 104 232 50 410 -28 93 -30 113 -31
265 -2 203 -20 292 -91 434 -81 162 -185 287 -330 396 -73 54 -172 111 -217
124 -21 6 -23 3 -23 -27z"/>
<path d="M3304 9039 c-19 -21 -119 -89 -130 -89 -19 0 -214 -101 -243 -126
-43 -36 -95 -117 -122 -191 -12 -32 -30 -70 -41 -85 -24 -34 -108 -66 -190
-72 -35 -3 -96 -10 -136 -16 -41 -5 -77 -8 -82 -5 -5 3 -11 1 -14 -4 -5 -7
-51 -19 -101 -26 -5 -1 -28 -9 -50 -19 -22 -9 -57 -23 -77 -29 -21 -7 -38 -15
-38 -19 0 -5 -8 -8 -18 -8 -11 0 -27 -9 -37 -20 -16 -18 -17 -26 -6 -75 7 -30
16 -57 21 -60 5 -3 32 6 60 20 28 14 55 23 60 20 4 -3 10 -1 12 3 8 21 350
133 553 182 100 25 103 25 108 -2 4 -19 5 -18 6 6 1 27 3 28 46 24 25 -2 45 0
45 4 0 5 9 8 19 8 11 0 54 15 95 34 89 41 168 110 202 178 29 58 70 206 79
286 3 31 8 67 11 80 6 28 -7 28 -32 1z m-148 -274 c-35 -76 -126 -166 -190
-188 -108 -37 -113 -16 -12 47 88 55 167 124 197 172 32 52 35 34 5 -31z"/>
<path d="M3880 8954 c-41 -19 -101 -53 -132 -75 -32 -21 -60 -39 -62 -39 -2 0
-18 -13 -35 -29 -18 -16 -85 -70 -150 -120 -117 -89 -151 -128 -190 -216 -42
-96 -31 -218 29 -340 36 -74 122 -195 139 -195 4 0 12 36 17 80 9 60 20 97 48
148 92 168 101 192 104 282 2 47 -1 109 -6 139 -15 81 -2 112 68 166 57 44
148 94 198 110 34 10 83 125 54 125 -4 0 -41 -16 -82 -36z m-370 -422 c-46
-107 -70 -193 -70 -253 -1 -39 -2 -42 -13 -24 -7 12 -12 56 -11 105 0 71 5 95
29 148 24 54 89 131 101 119 2 -2 -14 -45 -36 -95z"/>
<path d="M7539 8635 c-3 -2 -33 -8 -68 -14 -161 -26 -293 -133 -346 -281 -20
-54 -45 -177 -37 -184 2 -3 17 3 31 12 42 29 76 41 188 67 152 36 215 73 269
156 70 111 97 119 190 63 49 -29 176 -127 221 -170 17 -16 151 -80 206 -98 59
-20 206 -46 257 -46 34 0 38 3 44 31 13 68 8 86 -25 93 -17 3 -49 6 -70 6 -29
0 -39 4 -39 16 0 14 -3 14 -15 4 -23 -19 -97 -5 -177 32 -37 17 -68 34 -68 37
0 3 -19 15 -41 26 -23 10 -44 25 -46 32 -3 7 -10 13 -15 13 -6 0 -50 25 -98
55 -90 58 -232 125 -262 125 -10 0 -18 4 -18 9 0 4 -11 6 -25 3 -14 -2 -31 1
-38 7 -8 6 -16 9 -18 6z"/>
<path d="M9600 8489 c-111 -13 -218 -64 -305 -145 -62 -58 -104 -84 -132 -84
-12 0 -47 -11 -78 -24 -30 -14 -55 -23 -55 -21 0 2 -15 -9 -32 -26 -18 -16
-35 -29 -39 -29 -15 0 -69 -92 -93 -160 -32 -89 -66 -144 -114 -184 -33 -28
-34 -30 -13 -38 84 -31 248 -16 349 32 130 61 175 132 193 302 13 120 33 165
92 204 36 23 95 47 157 61 14 4 84 6 155 7 118 0 136 -3 198 -27 37 -14 88
-41 112 -58 25 -18 48 -30 51 -26 3 3 1 38 -6 77 -12 72 -19 80 -72 95 -5 2
-10 4 -13 5 -3 1 -9 4 -15 5 -5 1 -11 3 -12 5 -2 1 -12 3 -23 5 -11 2 -45 8
-75 13 -76 15 -164 19 -230 11z"/>
<path d="M7686 8390 c-19 -22 -54 -76 -76 -120 -46 -92 -79 -120 -190 -165
-139 -56 -208 -150 -231 -311 -12 -87 -30 -138 -60 -170 l-20 -21 22 -6 c34
-9 184 11 239 32 114 43 203 120 241 207 21 47 41 187 32 222 -7 28 23 127 55
182 15 25 46 64 70 88 38 36 42 45 31 58 -11 14 -61 44 -72 44 -3 0 -21 -18
-41 -40z"/>
<path d="M2360 8282 l-55 -18 -8 -59 c-29 -218 -58 -294 -156 -418 -57 -70
-256 -271 -376 -378 -34 -30 -99 -94 -145 -143 -48 -50 -123 -114 -171 -147
-154 -103 -207 -188 -216 -349 -9 -138 34 -264 119 -357 68 -73 73 -72 73 10
1 86 16 120 85 186 77 75 116 134 135 205 16 60 17 76 5 166 -12 90 -12 103 5
146 32 85 103 162 271 296 284 228 416 381 468 546 24 77 53 302 41 322 -8 13
-8 12 -75 -8z"/>
<path d="M1770 8124 c-157 -180 -209 -454 -127 -674 14 -36 31 -66 38 -68 8
-1 41 24 73 57 l59 60 -16 69 c-32 133 -12 301 49 410 l26 47 -25 65 c-14 35
-29 66 -34 67 -6 2 -25 -13 -43 -33z"/>
<path d="M2487 7830 c-16 -5 -34 -13 -41 -19 -7 -6 -29 -10 -50 -9 -30 1 -42
-4 -61 -28 -32 -38 -31 -45 8 -80 17 -17 51 -56 75 -88 58 -77 108 -100 217
-100 88 -1 155 6 155 14 0 4 15 11 34 18 37 14 176 108 176 120 0 4 -28 13
-62 19 -33 7 -64 15 -67 20 -3 4 -15 10 -26 11 -11 2 -45 21 -75 43 -92 65
-130 81 -195 85 -33 2 -73 -1 -88 -6z"/>
<path d="M5516 7048 c-2 -7 -14 -47 -26 -88 -21 -74 -73 -180 -112 -230 -11
-14 -61 -53 -111 -88 -57 -38 -100 -77 -114 -99 -29 -48 -39 -114 -23 -153 14
-35 30 -39 30 -9 0 35 19 59 157 197 83 83 140 132 148 128 22 -8 29 -54 16
-108 -6 -27 -38 -98 -72 -158 -100 -179 -159 -397 -144 -534 8 -78 20 -79 29
-3 11 96 68 248 159 427 99 195 120 246 138 338 18 95 7 253 -22 326 -24 59
-45 80 -53 54z"/>
<path d="M5320 6542 c-120 -121 -140 -155 -140 -232 0 -26 33 -156 57 -220 3
-8 16 26 29 75 13 50 52 146 85 215 34 69 70 149 80 179 20 56 25 101 12 100
-5 0 -60 -53 -123 -117z"/>
<path d="M6424 5992 c-17 -21 -77 -102 -134 -182 -210 -294 -317 -420 -438
-514 -132 -102 -174 -132 -282 -204 -138 -91 -265 -214 -297 -287 -12 -27 -33
-92 -48 -144 -14 -52 -39 -128 -55 -169 -17 -40 -30 -78 -30 -84 0 -35 100
102 155 212 15 30 59 94 97 142 53 65 84 94 126 116 32 17 83 51 115 76 34 26
64 43 73 39 30 -11 48 -66 48 -148 1 -74 -2 -86 -41 -168 -60 -124 -132 -224
-243 -337 -87 -89 -102 -100 -185 -134 -49 -20 -112 -54 -140 -75 -27 -21 -79
-53 -114 -70 -65 -32 -169 -66 -177 -58 -2 2 23 17 58 32 90 41 165 87 231
143 32 27 95 67 140 89 172 85 378 342 433 542 14 51 15 68 5 101 -6 22 -17
40 -22 40 -6 0 -64 -36 -129 -81 -130 -89 -205 -167 -254 -266 -60 -121 -125
-202 -175 -218 -11 -3 -38 -37 -60 -75 -23 -38 -68 -102 -100 -143 -75 -94
-135 -146 -276 -235 -25 -15 -145 -74 -205 -100 -78 -34 -314 -103 -400 -118
-14 -2 -64 -13 -112 -24 -48 -11 -91 -19 -95 -18 -5 0 -15 -1 -23 -5 -8 -3
-51 -13 -95 -22 -44 -9 -88 -21 -97 -26 -10 -5 -28 -9 -41 -9 -13 0 -27 -3
-31 -7 -4 -5 -11 -8 -14 -9 -7 -1 -28 -9 -115 -46 -127 -54 -251 -144 -381
-277 -142 -143 -215 -260 -250 -397 -26 -105 -25 -125 9 -145 17 -10 53 -21
81 -24 l50 -7 17 82 c42 217 192 402 442 548 39 22 102 53 140 67 39 15 89 36
111 46 67 31 232 69 300 69 35 0 64 -3 64 -6 0 -3 -14 -25 -31 -50 -38 -56
-69 -145 -69 -200 0 -48 1 -48 92 -59 57 -6 57 -6 64 22 15 72 38 125 69 166
39 51 158 135 225 158 163 58 422 140 431 137 5 -2 -7 -37 -27 -78 -29 -58
-57 -95 -128 -165 -89 -88 -204 -181 -256 -206 -14 -7 -32 -19 -40 -25 -22
-18 -135 -54 -169 -54 -16 0 -32 6 -34 13 -4 9 -8 9 -15 -2 -8 -11 -27 -13
-93 -7 -45 4 -87 9 -92 13 -6 3 -26 7 -46 9 -75 7 -272 86 -355 142 -26 19
-31 19 -65 5 -41 -17 -201 -119 -201 -128 0 -4 29 -50 64 -103 143 -218 314
-534 452 -837 l73 -160 73 -3 c129 -5 126 -14 51 150 -144 316 -194 420 -234
485 -187 303 -244 403 -231 403 4 0 33 -12 62 -26 53 -25 87 -40 102 -43 4 -1
27 -9 50 -17 121 -43 194 -56 362 -61 114 -4 187 -2 225 6 67 15 245 99 291
138 23 19 35 24 38 15 17 -52 135 -242 150 -242 5 0 33 23 64 50 l57 50 -29
63 c-46 97 -42 218 10 323 68 138 303 332 461 378 75 23 89 21 89 -9 0 -38
-33 -97 -98 -172 -127 -150 -242 -300 -242 -318 0 -12 121 87 209 171 57 54
99 104 118 141 35 66 100 269 89 280 -4 4 -50 -14 -103 -40 -52 -27 -97 -46
-99 -45 -5 6 122 99 196 146 66 41 105 55 105 37 -1 -28 -101 -309 -131 -372
-47 -95 -150 -193 -306 -293 -102 -65 -121 -82 -144 -125 -102 -190 -238 -346
-387 -440 -71 -45 -77 -51 -60 -63 16 -12 78 -31 144 -46 21 -5 45 8 125 67
136 101 193 155 285 269 44 54 86 98 93 98 8 0 22 -33 35 -82 67 -252 85 -308
98 -308 19 0 100 39 112 54 8 9 5 30 -9 70 -46 134 -61 292 -39 398 17 78 56
158 79 158 12 0 47 -35 93 -93 94 -116 381 -398 552 -541 152 -127 171 -140
185 -131 13 8 60 100 59 117 0 7 -31 38 -70 68 -104 82 -367 355 -422 438
-141 212 -177 390 -123 604 26 104 52 162 100 223 62 81 91 92 139 55 58 -46
141 -210 172 -341 39 -169 7 -294 -131 -507 -30 -45 -54 -88 -54 -95 0 -7 22
-35 49 -61 l49 -48 45 37 c57 48 133 134 192 219 53 75 72 81 109 34 30 -40
45 -96 56 -202 20 -197 -46 -425 -181 -623 -16 -23 -29 -47 -29 -54 0 -6 24
-33 53 -60 l52 -48 22 21 c33 31 116 154 152 226 55 110 103 275 117 401 2 25
6 47 8 49 11 10 51 -25 102 -89 31 -38 60 -68 64 -67 14 5 110 126 110 137 0
17 -162 290 -233 395 -34 49 -93 123 -133 165 -91 97 -135 177 -106 195 16 10
111 -16 177 -48 193 -96 362 -289 396 -454 25 -118 -10 -208 -152 -397 -90
-119 -141 -200 -153 -242 -6 -19 -2 -23 31 -31 21 -6 55 -12 76 -15 35 -6 39
-4 64 36 14 23 65 92 113 152 106 133 151 204 199 308 l37 78 39 -31 c94 -75
286 -140 415 -140 37 0 38 1 69 70 48 108 45 115 -46 110 -26 -1 -33 2 -33 17
0 14 -2 15 -9 4 -8 -12 -19 -11 -70 8 -92 34 -291 157 -291 181 0 5 -9 12 -20
15 -47 15 -219 259 -198 281 4 4 58 -10 120 -30 62 -20 160 -50 218 -66 155
-45 237 -89 304 -161 64 -69 88 -132 87 -230 0 -117 -43 -211 -147 -320 -53
-55 -160 -134 -217 -160 -15 -7 -27 -16 -27 -20 0 -9 79 -51 117 -63 49 -15
271 159 353 276 71 101 95 179 94 303 -1 114 -21 180 -81 266 l-36 52 89 -6
c90 -7 266 -47 316 -71 15 -8 50 -20 78 -27 50 -13 51 -13 73 13 12 14 41 38
65 53 23 15 42 31 42 35 0 14 -112 61 -252 107 -183 59 -168 55 -202 59 -45 6
-338 75 -366 87 -14 5 -38 11 -53 13 -91 12 -417 161 -519 237 -175 131 -304
302 -362 479 -73 223 -115 520 -124 868 l-7 244 -31 -59 c-16 -33 -49 -94 -72
-136 -32 -58 -50 -108 -73 -210 -17 -74 -47 -174 -66 -224 -19 -49 -46 -142
-60 -205 -36 -171 -48 -216 -102 -362 -82 -224 -87 -341 -20 -527 17 -47 44
-128 60 -180 28 -93 38 -110 152 -253 49 -62 26 -52 -58 25 -53 49 -101 106
-148 177 -71 108 -142 238 -134 247 6 5 53 -62 87 -124 13 -24 27 -43 32 -43
11 0 13 -7 -36 147 -25 76 -48 154 -51 174 -9 48 16 178 61 320 20 63 52 173
70 244 18 72 53 189 77 260 63 183 65 205 7 90 -28 -57 -73 -128 -105 -165
-72 -83 -106 -150 -144 -283 -59 -200 -114 -292 -248 -413 -125 -113 -150
-142 -184 -209 -33 -68 -49 -139 -50 -229 l-1 -61 -13 40 c-42 126 -3 259 160
550 41 74 58 135 36 135 -5 0 -31 -32 -57 -72 -86 -129 -183 -207 -333 -268
-82 -33 -267 -155 -313 -206 -18 -19 -54 -67 -81 -107 -37 -55 -47 -65 -42
-42 12 53 66 151 106 194 22 22 85 72 142 111 56 39 138 105 183 148 44 42
109 104 144 137 34 33 88 93 119 133 31 41 77 101 102 134 26 34 52 78 58 98
12 40 6 73 -13 67 -6 -2 -49 -51 -96 -110 -213 -265 -279 -331 -397 -392 -32
-16 -60 -32 -63 -36 -12 -13 -80 -50 -80 -43 0 4 -6 1 -12 -7 -20 -24 -174
-159 -181 -159 -4 0 -15 -8 -26 -19 -10 -10 -35 -21 -55 -25 -20 -4 -73 -23
-117 -42 -45 -19 -85 -32 -89 -29 -5 3 -10 1 -12 -5 -1 -5 -41 -19 -88 -31
-95 -24 -206 -22 -256 4 -28 15 -27 15 32 10 73 -7 192 16 304 57 44 16 80 27
80 24 0 -4 6 -2 13 5 7 6 44 18 82 26 91 22 98 25 215 133 80 73 122 103 197
140 115 56 194 126 333 293 202 242 268 337 442 634 152 261 157 274 208 550
18 94 47 217 66 274 46 139 44 149 -12 83z m-84 -289 c0 -57 -57 -228 -111
-337 -39 -78 -92 -156 -142 -210 -45 -48 -37 -26 24 67 104 157 174 314 167
374 -3 26 -5 25 -55 -37 -52 -66 -151 -165 -257 -255 -32 -27 -88 -85 -124
-128 -36 -42 -67 -75 -70 -72 -12 12 77 124 166 208 210 199 277 271 311 337
37 72 69 112 82 104 5 -3 9 -26 9 -51z m390 -735 c24 -39 55 -135 64 -198 l6
-45 -25 50 c-14 28 -38 79 -54 115 l-29 65 -16 -37 c-9 -21 -25 -99 -36 -175
l-19 -138 -100 -200 c-90 -180 -122 -260 -134 -335 -2 -14 -5 -1 -6 28 -1 63
24 143 85 264 58 116 96 230 135 408 48 221 82 274 129 198z m-1070 -192 c0
-67 -84 -202 -222 -358 -57 -64 -78 -80 -78 -59 0 6 24 36 54 68 119 130 214
289 188 315 -26 26 -170 -73 -241 -166 -48 -61 -56 -67 -46 -33 14 43 84 124
152 174 69 51 133 88 133 78 0 -4 7 0 15 9 23 22 45 9 45 -28z m1153 -158 c56
-75 71 -158 67 -388 -4 -254 29 -382 126 -489 55 -61 31 -55 -35 9 -52 50 -95
138 -117 239 -13 58 -16 105 -12 206 6 142 2 172 -25 189 -22 13 -40 -7 -91
-104 -19 -36 -56 -92 -81 -125 -57 -73 -98 -152 -116 -225 -18 -74 -16 -233 5
-289 20 -54 20 -57 -1 -40 -50 42 -74 181 -54 318 15 102 32 150 75 215 70
106 140 294 156 419 4 37 14 74 20 82 21 25 57 18 83 -17z m246 -487 c60 -132
81 -164 130 -195 36 -22 354 -129 421 -141 60 -11 180 -48 180 -55 0 -4 -33
-1 -72 7 -40 7 -94 16 -120 20 -27 3 -48 9 -48 12 0 3 -21 7 -48 8 -52 1 -251
62 -323 99 -84 42 -121 103 -158 260 -33 141 -31 140 38 -15z"/>
<path d="M6753 4564 c-3 -55 -39 -164 -94 -285 -28 -61 -49 -113 -46 -115 7
-7 88 118 126 193 34 69 61 85 92 57 18 -16 19 -16 19 9 0 59 -56 177 -83 177
-7 0 -13 -16 -14 -36z"/>
<path d="M6564 5292 c-21 -13 -196 -273 -219 -326 -29 -67 -68 -196 -61 -204
7 -6 5 -9 43 48 16 25 51 88 76 140 25 52 71 140 101 195 47 85 80 155 73 155
-1 0 -7 -4 -13 -8z"/>
<path d="M5853 4403 c-32 -43 -97 -118 -145 -168 -141 -147 -153 -169 -81
-147 128 39 375 363 296 389 -6 2 -37 -31 -70 -74z"/>
<path d="M1972 4119 c-60 -11 -101 -37 -139 -87 -120 -157 -29 -395 191 -497
133 -63 168 -124 192 -335 20 -172 30 -217 63 -286 65 -135 196 -248 382 -329
35 -16 70 -35 77 -44 6 -8 12 -10 12 -4 0 7 39 -1 98 -18 53 -16 140 -38 192
-49 52 -12 102 -24 110 -27 8 -3 24 -7 35 -8 47 -7 351 -67 365 -72 8 -4 19
-5 24 -4 4 1 44 -3 88 -10 43 -6 81 -9 84 -6 3 3 -15 43 -40 89 l-45 84 -88
17 c-48 9 -128 24 -178 33 -49 9 -95 23 -101 31 -9 10 -13 11 -16 2 -3 -9 -13
-9 -38 -1 -19 6 -90 23 -157 38 -68 15 -123 32 -123 37 0 4 -5 5 -10 2 -9 -6
-83 13 -135 35 -11 4 -42 16 -68 25 -70 25 -189 108 -242 168 -78 89 -106 204
-66 277 30 58 77 87 186 117 85 23 120 27 235 28 74 0 155 -4 180 -8 41 -8 47
-6 75 20 17 16 62 56 100 88 39 33 70 64 70 69 0 28 -150 33 -281 11 -48 -9
-93 -14 -101 -11 -7 3 -15 0 -19 -6 -4 -6 -24 -8 -50 -4 -26 3 -44 2 -44 -4 0
-20 -280 -4 -314 18 -6 3 -22 7 -36 8 -39 5 -170 55 -170 66 0 5 -4 7 -9 4 -5
-3 -45 12 -90 35 -101 50 -193 133 -217 194 -16 43 -16 48 1 91 27 70 95 104
141 70 18 -14 18 -15 -7 -25 -32 -12 -59 -47 -59 -77 0 -29 34 -70 65 -78 64
-16 145 65 145 144 0 78 -72 175 -138 185 -73 11 -88 12 -130 4z"/>
<path d="M9960 4109 c-77 -31 -129 -107 -130 -189 0 -114 126 -181 184 -98 9
12 16 32 16 44 0 29 -37 74 -62 74 -27 0 -18 23 14 34 31 11 73 -8 101 -46 28
-38 26 -102 -4 -162 -24 -48 -112 -136 -136 -136 -7 0 -13 -3 -13 -8 0 -14
-115 -70 -205 -100 -49 -17 -124 -35 -165 -42 -83 -12 -324 -15 -343 -3 -7 4
-25 6 -40 4 -19 -2 -33 4 -42 16 -10 12 -14 14 -15 4 0 -10 -9 -12 -32 -7 -70
12 -197 15 -273 5 -98 -13 -169 -44 -232 -101 -26 -24 -71 -60 -98 -80 -54
-39 -202 -108 -239 -112 -12 -1 -26 -5 -31 -8 -6 -3 -22 -8 -37 -12 -24 -5
-28 -12 -28 -40 0 -18 -7 -55 -15 -81 -8 -27 -13 -51 -11 -53 14 -13 241 61
340 110 32 16 60 27 63 24 5 -4 -31 -63 -47 -76 -10 -9 -129 -197 -179 -284
-43 -74 -131 -256 -131 -271 0 -3 41 -4 91 -3 l92 3 56 110 c122 238 285 498
368 586 91 98 230 130 440 104 258 -33 325 -54 377 -115 33 -40 40 -68 33
-142 -10 -109 -93 -200 -274 -300 l-72 -39 -3 -87 c-2 -48 0 -91 3 -95 9 -11
150 44 229 90 95 55 209 172 253 258 45 91 53 120 77 305 13 91 29 172 42 201
26 62 82 113 164 150 86 38 164 113 200 192 24 51 29 75 28 137 0 84 -17 129
-68 184 -51 56 -175 83 -246 55z"/>
<path d="M8940 3263 c-42 -15 -99 -44 -104 -52 -3 -5 27 -42 67 -82 117 -119
178 -268 178 -432 0 -106 -15 -175 -56 -262 -59 -123 -182 -235 -320 -293 -33
-13 -75 -31 -93 -39 -17 -8 -47 -15 -65 -17 -17 -2 -40 -7 -49 -11 -10 -4 -25
-5 -33 -2 -8 4 -17 1 -21 -5 -4 -6 -23 -8 -45 -5 -22 3 -39 1 -39 -4 0 -4 -32
-9 -72 -11 l-72 -3 -42 -75 -43 -75 77 -3 c177 -8 439 41 593 110 107 49 176
96 251 176 157 166 222 420 173 670 -21 106 -97 258 -175 350 -59 68 -75 78
-110 65z"/>
<path d="M4010 2943 c0 -5 23 -37 50 -73 91 -118 263 -251 438 -339 87 -44
305 -121 342 -121 12 0 24 -9 30 -22 7 -18 9 -19 9 -5 1 22 47 23 59 1 6 -11
11 -13 16 -5 4 7 39 11 87 11 l81 0 -7 33 c-4 17 -16 55 -26 83 l-19 51 -78 6
c-189 14 -230 22 -387 82 -135 52 -257 131 -385 251 -43 40 -48 42 -127 48
-46 4 -83 3 -83 -1z"/>
<path d="M5825 2893 c-84 -79 -195 -166 -263 -206 -70 -41 -184 -87 -220 -89
-48 -3 -52 -13 -31 -85 10 -36 21 -68 23 -71 11 -11 125 20 194 53 85 40 222
127 300 191 30 24 60 44 68 44 8 0 14 6 14 13 0 7 18 31 40 52 22 21 40 44 40
50 0 9 -93 105 -101 105 -2 -1 -31 -26 -64 -57z"/>
<path d="M5061 2762 l-55 -48 31 -45 c69 -101 116 -224 135 -356 10 -72 10
-86 -2 -94 -12 -7 -12 -11 -2 -17 8 -6 13 -33 14 -78 1 -68 1 -70 56 -138 63
-78 64 -77 81 31 32 209 -7 451 -105 645 -40 78 -83 148 -93 148 -3 0 -30 -22
-60 -48z"/>
<path d="M7168 2768 c-19 -24 -38 -48 -41 -55 -11 -18 88 -89 263 -189 85 -48
172 -104 193 -124 38 -35 77 -124 77 -174 0 -31 15 -42 75 -57 28 -6 58 -16
68 -21 14 -7 24 -5 38 11 13 13 15 22 8 27 -14 8 -3 81 16 111 14 21 19 22
164 18 83 -2 155 -6 161 -10 5 -3 10 -1 10 4 0 6 19 11 43 11 130 0 467 58
654 113 l108 32 23 65 c13 35 22 81 20 101 l-3 36 -95 -38 c-102 -41 -322
-107 -380 -114 -19 -3 -57 -10 -85 -15 -27 -6 -60 -8 -72 -5 -12 3 -25 1 -28
-5 -3 -6 -25 -10 -48 -9 -23 0 -100 0 -170 -1 -71 0 -133 3 -139 6 -5 3 -24 8
-41 9 -85 9 -126 16 -177 31 -61 17 -179 58 -207 72 -170 82 -221 110 -293
157 -46 30 -90 55 -96 55 -6 0 -27 -19 -46 -42z"/>
<path d="M5952 2556 c-81 -45 -198 -133 -207 -155 -7 -17 63 -121 81 -121 6 0
34 18 60 40 57 47 120 80 154 80 78 0 323 -214 389 -339 27 -52 32 -71 29
-106 -7 -56 -38 -99 -87 -118 -46 -19 -88 -11 -163 31 l-47 27 -38 -44 c-59
-68 -59 -67 -6 -106 91 -66 206 -97 289 -76 144 36 236 186 205 334 -16 77
-39 123 -109 217 -113 152 -319 324 -433 362 l-44 14 -73 -40z"/>
<path d="M6655 2531 c-19 -39 -31 -72 -27 -74 19 -12 155 -47 219 -56 39 -6
119 -11 177 -11 67 0 107 -4 112 -11 5 -8 10 -6 16 5 5 9 20 16 33 16 13 0 34
4 47 9 13 5 56 19 96 31 40 11 70 25 67 30 -3 5 -38 27 -78 48 -61 34 -79 40
-122 37 -27 -2 -58 -6 -68 -10 -28 -12 -250 0 -255 13 -2 6 -10 8 -18 5 -7 -3
-45 4 -83 16 -38 12 -72 21 -75 21 -3 0 -21 -31 -41 -69z"/>
<path d="M4342 2554 c-27 -29 -145 -57 -256 -60 -60 -2 -111 -6 -114 -8 -3 -3
12 -41 34 -83 l39 -78 75 -3 75 -3 34 -99 c63 -187 159 -352 276 -478 l53 -57
81 -3 c123 -6 124 -4 41 86 -90 96 -158 195 -215 314 -40 80 -45 100 -45 157
1 94 35 159 113 214 16 11 6 18 -80 63 -81 42 -101 49 -111 38z"/>
<path d="M5571 2475 c-29 -19 -55 -36 -58 -39 -10 -10 84 -170 144 -246 61
-75 198 -211 233 -230 14 -7 28 0 64 31 25 22 46 45 46 50 0 6 -41 49 -90 96
-105 100 -195 214 -240 307 -18 36 -36 66 -39 65 -3 -1 -30 -16 -60 -34z"/>
<path d="M2840 2472 c0 -19 66 -166 94 -211 81 -128 233 -238 411 -299 96 -33
214 -60 290 -68 46 -5 74 -13 82 -23 7 -10 12 -11 13 -4 0 6 8 12 18 12 97 -1
342 28 437 52 115 29 114 27 85 91 -36 79 -31 77 -112 56 -40 -11 -85 -17
-100 -15 -16 2 -28 0 -28 -5 0 -14 -348 -9 -448 7 -226 37 -413 152 -503 311
-29 50 -31 52 -92 64 -34 6 -66 15 -72 18 -5 3 -16 7 -25 8 -8 1 -23 5 -32 9
-11 4 -18 3 -18 -3z"/>
<path d="M6764 2369 c-3 -5 -9 -71 -13 -147 -6 -113 -4 -153 12 -231 42 -216
162 -374 315 -417 59 -16 61 -16 97 5 50 29 125 93 120 102 -3 3 -25 10 -50
13 -72 11 -178 70 -231 129 -109 121 -141 268 -111 512 2 15 -6 21 -38 27 -80
16 -95 17 -101 7z"/>
<path d="M8083 2278 c-6 -7 -16 -31 -23 -53 -19 -62 -84 -193 -130 -264 -59
-91 -142 -174 -226 -228 -50 -31 -96 -72 -144 -129 -39 -46 -75 -84 -81 -84
-17 0 -9 -25 11 -38 17 -10 21 -10 26 3 4 8 16 15 28 15 20 0 109 30 188 63
101 43 243 171 328 296 72 107 199 398 184 422 -8 14 -150 11 -161 -3z"/>
<path d="M4700 2236 l0 -35 -57 -6 c-32 -3 -82 -11 -110 -16 -62 -12 -64 -20
-28 -97 19 -41 29 -52 42 -49 45 13 153 16 203 7 30 -5 68 -12 84 -15 56 -9
177 -77 238 -133 40 -37 96 -110 163 -212 57 -85 118 -172 136 -193 l34 -38
67 21 c37 11 70 25 73 30 3 6 -12 31 -35 57 -22 27 -83 111 -135 188 -122 179
-193 264 -269 322 -90 68 -167 100 -284 120 -101 16 -102 17 -102 44 0 15 -4
31 -10 34 -6 4 -10 -8 -10 -29z"/>
<path d="M7250 2227 c-8 -16 -24 -30 -39 -33 -120 -26 -218 -71 -265 -123 -16
-18 -16 -21 3 -70 11 -29 27 -63 36 -77 l16 -24 34 33 c78 75 196 117 332 117
67 0 85 -3 90 -16 4 -12 8 -12 13 -4 10 15 135 -5 153 -25 6 -6 19 -10 28 -8
9 3 58 -12 109 -32 l92 -37 21 21 c12 11 33 41 47 66 22 39 23 47 10 55 -50
32 -382 120 -453 120 -15 0 -35 9 -44 19 -14 17 -18 18 -31 5 -10 -10 -31 -14
-70 -12 -50 3 -57 6 -63 28 l-6 25 -13 -28z"/>
<path d="M6203 2226 c-23 -38 -191 -236 -202 -236 -3 0 -23 -16 -43 -34 -52
-48 -136 -101 -182 -116 -107 -34 -194 45 -166 152 6 24 22 60 36 80 13 21 24
41 24 44 0 4 -19 32 -42 62 l-41 56 -34 -39 c-68 -78 -102 -245 -73 -351 15
-53 76 -125 126 -149 35 -16 184 -37 184 -25 0 3 19 11 43 17 100 27 302 203
426 371 68 93 68 96 6 151 -40 34 -50 37 -62 17z"/>
<path d="M7546 1911 c-61 -86 -203 -251 -217 -251 -5 0 -20 -13 -35 -29 -34
-39 -176 -133 -245 -164 -30 -13 -80 -30 -109 -37 -30 -7 -66 -16 -80 -20 -14
-4 -56 -8 -95 -9 -68 -2 -71 -3 -115 -45 -25 -23 -58 -52 -73 -64 -15 -11 -24
-23 -19 -26 34 -21 294 -31 352 -13 8 2 47 12 85 21 167 41 365 164 508 315
105 112 237 304 237 345 0 7 -31 22 -70 33 l-70 21 -54 -77z"/>
<path d="M4113 1867 c-35 -5 -63 -13 -63 -18 0 -22 111 -137 183 -191 95 -70
135 -92 239 -128 104 -38 269 -42 387 -10 133 36 311 141 311 183 0 19 -48 94
-74 116 -14 11 -24 6 -74 -40 -74 -67 -148 -106 -219 -113 -13 -1 -26 -6 -30
-9 -10 -11 -153 -8 -198 4 -22 5 -51 12 -65 15 -52 11 -178 87 -240 144 -35
33 -71 59 -80 59 -8 -1 -43 -6 -77 -12z"/>
<path d="M6736 1797 c-65 -172 -292 -402 -464 -472 -66 -27 -210 -49 -258 -40
-28 5 -33 11 -37 38 l-4 32 -1 -32 c-2 -26 -6 -33 -22 -33 -10 0 -25 6 -32 13
-6 8 -21 12 -32 10 -12 -2 -46 3 -76 12 -66 20 -101 23 -115 12 -5 -4 -37 -21
-70 -36 l-60 -29 85 -40 c47 -22 104 -46 128 -53 37 -11 42 -16 43 -43 l2 -31
4 29 c4 25 7 27 31 21 38 -10 362 -15 362 -5 0 4 17 11 37 15 63 11 224 93
300 151 121 93 219 213 265 325 l22 51 -40 74 c-21 41 -42 74 -45 74 -4 0 -14
-19 -23 -43z"/>
<path d="M5895 1610 c-22 -4 -69 -18 -105 -30 -36 -13 -71 -23 -77 -23 -7 0
-13 -4 -13 -7 0 -12 -136 -80 -159 -80 -12 0 -21 -5 -21 -11 0 -6 -6 -9 -14
-6 -7 3 -17 2 -22 -3 -5 -4 -40 -15 -77 -25 -125 -30 -293 -9 -395 51 l-45 27
-71 -16 c-39 -9 -88 -19 -110 -22 l-39 -6 54 -37 c160 -107 327 -162 495 -162
153 0 201 13 393 103 106 49 212 89 219 82 3 -2 11 0 19 7 8 6 46 13 86 16 85
5 183 -15 258 -54 63 -31 79 -28 144 29 l50 44 -48 30 c-26 17 -75 41 -110 53
-34 12 -69 24 -77 27 -31 12 -58 14 -175 18 -66 2 -138 0 -160 -5z"/>
</g>
</svg>
